# xmcd CD database file
#
# Track frame offsets:
#	150
#	34168
#	70903
#	107460
#	143755
#	178500
#	208103
#	245276
#
# Disc length: 3691 seconds
#
# Revision: 0
# Processed by: cddbd v1.5.2PL0 Copyright (c) Steve Scherf et al.
# Submitted via: CDex 1.51
#
DISCID=6a0e6908
DTITLE=Gaiam - Journeys by Mark Oblinger
DYEAR=2008
DGENRE=New Age
TTITLE0=On Distant Shores
TTITLE1=Queensland
TTITLE2=Young Mipham's Journey Home
TTITLE3=Shishmaref
TTITLE4=Vibhuti
TTITLE5=Umtata
TTITLE6=Eastern Pavane
TTITLE7=West of Shambhala
EXTD=YEAR: 2008
EXTT0=
EXTT1=
EXTT2=
EXTT3=
EXTT4=
EXTT5=
EXTT6=
EXTT7=
PLAYORDER=
